<?xml version="1.0" encoding="UTF-8"?>
<svg id="Calque_1" xmlns="http://www.w3.org/2000/svg" version="1.1" viewBox="0 0 283.46 283.46">
  <!-- Generator: Adobe Illustrator 30.1.0, SVG Export Plug-In . SVG Version: 2.1.1 Build 136)  -->
  <defs>
    <style>
      .st0 {
        fill: #f6f6f6;
      }
    </style>
  </defs>
  <path class="st0" d="M129.43,215.59c-4.33,2.62-8.36,3.92-12.1,3.92-7.24,0-13.44-3.06-18.59-9.18-4.93-5.83-7.35-12.58-7.28-20.27.08-6.95,3.03-13.26,8.85-18.93,1.23-1.16,2.47-2.21,3.74-3.12v11.2h19.93v-15.79c4.13.74,8.04,2.38,11.72,4.91l4.48-9.75c-4.35-2.88-9.75-4.71-16.2-5.49V30.4H23.23v11.4h16.73c-12.81,13.76-20.7,27.23-23.67,40.4-1.66,7.72-2.49,15.43-2.49,23.14,0,28.84,10.97,53.46,32.93,73.87h23.67c-5.34-9.61-8.66-15.96-9.96-19.04-3.21-7.36-4.81-14.18-4.81-20.47h48.42v14.61c-8.07,2.29-15.25,6.96-21.55,14.02-8.88,10.08-13.25,21.58-13.1,34.49.15,13.52,5.04,25.3,14.67,35.34,9.63,10.04,20.94,15.03,33.94,14.95,8.06-.07,15.68-2.05,22.84-5.93,7.55-4.26,13.11-9.97,16.69-17.14l-18.14-22.85c-2.69,3.29-6.01,6.09-9.97,8.4ZM69.25,78.46c5.63-8.3,9.4-12.46,11.3-12.46h23.5v28.66h-43.26c0-2.49,2.82-7.89,8.46-16.2ZM55.1,125.28c-.24-7.24.53-13,2.31-17.27h46.64v17.27h-48.95Z"/>
  <path class="st0" d="M269.67,76.62c0-12.17-5.71-21.35-17.14-27.55-8.96-4.86-19.75-7.28-32.37-7.28h-22.32c-.12-.41-.26-.82-.39-1.24l-22.06,3.13c2.46,9.86,3.7,18.48,3.7,25.88,0,7.02-1.01,12.88-3.03,17.58-2.69,6.12-6.79,9.15-12.32,9.07-5.82-.07-10.3-2.42-13.44-7.05-2.84-4.26-4.25-10.01-4.25-17.25,0-6.27,1.45-13.78,4.36-22.51,2.39-6.35,4.78-12.7,7.17-19.04h-29.68v7.16h11.87c-7.84,15.54-11.79,30.24-11.87,44.13-.07,12.25,2.76,22.25,8.51,30.02,6.8,9.11,16.73,13.66,29.8,13.66s22.96-4.51,29.68-13.55c5.89-7.84,8.84-18.1,8.84-30.8,0-9.67-1.59-20.35-4.77-32.03h9.11v86.47h13.33v-40.32c3.28,1.42,5.73,2.46,7.37,3.13,0,5.38,2.38,11.17,7.15,17.36,4.91,6.5,10.56,10.91,16.97,13.22l3.34-3.36c-3.8-2.61-6.96-6.44-9.46-11.48-2.5-5.04-3.75-10.1-3.75-15.18,8.06,0,14.48-2.31,19.26-6.94,4.26-4.18,6.39-9.26,6.39-15.23ZM236.29,77.96c-1.64,1.35-3.73,2.02-6.27,2.02s-5.15-.71-7.62-2.13v-20.27c4.56.6,8.29,2.05,11.2,4.37,3.44,2.61,5.16,6.01,5.16,10.19,0,2.54-.83,4.48-2.47,5.82Z"/>
  <path class="st0" d="M241.78,179.32c0,16.35-6.72,32.93-20.16,49.73h-14.34c3.89-3.21,7.04-7.65,9.47-13.33,2.42-5.67,3.68-11.49,3.75-17.47.07-5.6-.93-10.86-3.02-15.79-2.32-5.45-5.68-9.48-10.08-12.1l-13.33,41.44h-8.07l-13.32-41.44c-4.41,2.62-7.77,6.65-10.08,12.1-2.09,4.93-3.1,10.19-3.03,15.79.08,5.98,1.33,11.8,3.75,17.47,2.43,5.68,5.59,10.12,9.47,13.33h-14.34c-13.44-16.8-20.16-33.38-20.16-49.73,0-12.99,5.15-25.23,15.46-36.73h-14.23v-7.17h38.31l11.98,44.01,12.43-44.01h38.31v7.17h-14.23c10.31,11.5,15.46,23.74,15.46,36.73Z"/>
</svg>